<?xml version="1.0" encoding="UTF-8"?>
<svg width="1555px" height="754px" viewBox="0 0 1555 754" version="1.1" xmlns="http://www.w3.org/2000/svg" xmlns:xlink="http://www.w3.org/1999/xlink" style="background: #FFFFFF;">
    <!-- Generator: Sketch 48.2 (47327) - http://www.bohemiancoding.com/sketch -->
    <title>Slice</title>
    <desc>Created with Sketch.</desc>
    <defs>
        <rect id="path-1" x="128" y="101" width="326" height="101" rx="8"></rect>
        <rect id="path-2" x="129" y="580" width="326" height="101" rx="8"></rect>
        <path d="M1091,101 L1401,101 C1405.41828,101 1409,104.581722 1409,109 L1409,194 C1409,198.418278 1405.41828,202 1401,202 L1246,202 L1091,202 C1086.58172,202 1083,198.418278 1083,194 L1083,109 C1083,104.581722 1086.58172,101 1091,101 Z" id="path-3"></path>
        <rect id="path-4" x="1083" y="441" width="326" height="101" rx="8"></rect>
        <rect id="path-5" x="601" y="101" width="326" height="101" rx="8"></rect>
        <rect id="path-6" x="601" y="271" width="326" height="101" rx="8"></rect>
        <rect id="path-7" x="1084" y="269" width="326" height="101" rx="8"></rect>
        <rect id="path-8" x="601" y="439" width="326" height="101" rx="8"></rect>
    </defs>
    <g id="Page-1" stroke="none" stroke-width="1" fill="none" fill-rule="evenodd">
        <g id="Rectangle-2">
            <use fill="#9B9B9B" fill-rule="evenodd" xlink:href="#path-1"></use>
            <rect stroke="#9B9B9B" stroke-width="2" x="129" y="102" width="324" height="99" rx="8"></rect>
        </g>
        <text id="DRAFT" font-family="FranklinGothic-Heavy, ITC Franklin Gothic" font-size="48" font-weight="600" fill="#FFFFFF">
            <tspan x="217.56" y="169">DRAFT</tspan>
        </text>
        <g id="Rectangle-2">
            <use fill="#D8D8D8" fill-rule="evenodd" xlink:href="#path-2"></use>
            <rect stroke="#979797" stroke-width="2" x="130" y="581" width="324" height="99" rx="8"></rect>
        </g>
        <text id="STORAGE" font-family="FranklinGothic-Heavy, ITC Franklin Gothic" font-size="48" font-weight="600" fill="#FFFFFF">
            <tspan x="184.48" y="648">STORAGE</tspan>
        </text>
        <g id="Rectangle-2">
            <use fill="#4A90E2" fill-rule="evenodd" xlink:href="#path-3"></use>
            <path stroke="#979797" stroke-width="2" d="M1091,102 C1087.13401,102 1084,105.134007 1084,109 L1084,194 C1084,197.865993 1087.13401,201 1091,201 L1401,201 C1404.86599,201 1408,197.865993 1408,194 L1408,109 C1408,105.134007 1404.86599,102 1401,102 L1091,102 Z"></path>
        </g>
        <text id="FINAL" font-family="FranklinGothic-Heavy, ITC Franklin Gothic" font-size="48" font-weight="600" fill="#FFFFFF">
            <tspan x="1179.76" y="169">FINAL</tspan>
        </text>
        <g id="Rectangle-2">
            <use fill="#7ED321" fill-rule="evenodd" xlink:href="#path-4"></use>
            <rect stroke="#417505" stroke-width="2" x="1084" y="442" width="324" height="99" rx="8"></rect>
        </g>
        <text id="WIP" font-family="FranklinGothic-Heavy, ITC Franklin Gothic" font-size="48" font-weight="600" fill="#FFFFFF">
            <tspan x="1200.4" y="509">WIP</tspan>
        </text>
        <g id="Rectangle-2">
            <use fill="#B8E986" fill-rule="evenodd" xlink:href="#path-5"></use>
            <rect stroke="#979797" stroke-width="2" x="602" y="102" width="324" height="99" rx="8"></rect>
        </g>
        <text id="ACCEPTED" font-family="FranklinGothic-Heavy, ITC Franklin Gothic" font-size="48" font-weight="600" fill="#FFFFFF">
            <tspan x="643.52" y="169">ACCEPTED</tspan>
        </text>
        <g id="Rectangle-2">
            <use fill-opacity="0.720703125" fill="#D0021B" fill-rule="evenodd" xlink:href="#path-6"></use>
            <rect stroke="#979797" stroke-width="2" x="602" y="272" width="324" height="99" rx="8"></rect>
        </g>
        <text id="REJECTED" font-family="FranklinGothic-Heavy, ITC Franklin Gothic" font-size="48" font-weight="600" fill="#FFFFFF">
            <tspan x="649.76" y="339">REJECTED</tspan>
        </text>
        <g id="Rectangle-2">
            <use fill="#F8E71C" fill-rule="evenodd" xlink:href="#path-7"></use>
            <rect stroke="#979797" stroke-width="2" x="1085" y="270" width="324" height="99" rx="8"></rect>
        </g>
        <text id="OLD" font-family="FranklinGothic-Heavy, ITC Franklin Gothic" font-size="48" font-weight="600" fill="#FFFFFF">
            <tspan x="1200.92" y="337">OLD</tspan>
        </text>
        <g id="Rectangle-2">
            <use fill="#D8D8D8" fill-rule="evenodd" xlink:href="#path-8"></use>
            <rect stroke="#979797" stroke-width="2" x="602" y="440" width="324" height="99" rx="8"></rect>
        </g>
        <text id="CLOSED" font-family="FranklinGothic-Heavy, ITC Franklin Gothic" font-size="48" font-weight="600" fill="#FFFFFF">
            <tspan x="671.84" y="507">CLOSED</tspan>
        </text>
        <path d="M1244.5,209.5 L1244.5,256.131534" id="Line" stroke="#9B9B9B" stroke-width="4" stroke-linecap="square"></path>
        <path id="Line-decoration-1" d="M1244.5,256.131534 L1247.5,245.331534 L1241.5,245.331534 L1244.5,256.131534 Z" stroke="#9B9B9B" stroke-width="4" stroke-linecap="square"></path>
        <path d="M993,323 L942,323" id="Line-Copy-7" stroke="#9B9B9B" stroke-width="4" stroke-linecap="square"></path>
        <path id="Line-Copy-7-decoration-1" d="M942,323 L952.8,326 L952.8,320 L942,323 Z" stroke="#9B9B9B" stroke-width="4" stroke-linecap="square"></path>
        <path d="M151.5,203.5 L151.5,555.028804" id="Line" stroke="#9B9B9B" stroke-width="4" stroke-linecap="square"></path>
        <path id="Line-decoration-1" d="M151.5,555.028804 L154.5,544.228804 L148.5,544.228804 L151.5,555.028804 Z" stroke="#9B9B9B" stroke-width="4" stroke-linecap="square"></path>
        <path d="M442,323.333333 L579.420352,323.333333" id="Line-Copy-2" stroke="#9B9B9B" stroke-width="4" stroke-linecap="square"></path>
        <path id="Line-Copy-2-decoration-1" d="M579.420352,323.333333 L568.620352,320.333333 L568.620352,326.333333 L579.420352,323.333333 Z" stroke="#9B9B9B" stroke-width="4" stroke-linecap="square"></path>
        <path d="M454.971426,151.666667 L579.417167,151.666667" id="Line-Copy-4" stroke="#9B9B9B" stroke-width="4" stroke-linecap="square"></path>
        <path id="Line-Copy-4-decoration-1" d="M579.417167,151.666667 L568.617167,148.666667 L568.617167,154.666667 L579.417167,151.666667 Z" stroke="#9B9B9B" stroke-width="4" stroke-linecap="square"></path>
        <path d="M928.971426,151.666667 L1053.41717,151.666667" id="Line-Copy-6" stroke="#9B9B9B" stroke-width="4" stroke-linecap="square"></path>
        <path id="Line-Copy-6-decoration-1" d="M1053.41717,151.666667 L1042.61717,148.666667 L1042.61717,154.666667 L1053.41717,151.666667 Z" stroke="#9B9B9B" stroke-width="4" stroke-linecap="square"></path>
        <path d="M345.488902,488.333333 L579.419626,488.333333" id="Line-Copy-3" stroke="#9B9B9B" stroke-width="4" stroke-linecap="square"></path>
        <path id="Line-Copy-3-decoration-1" d="M579.419626,488.333333 L568.619626,485.333333 L568.619626,491.333333 L579.419626,488.333333 Z" stroke="#9B9B9B" stroke-width="4" stroke-linecap="square"></path>
        <path d="M441.5,202.998959 L441.5,323.105962" id="Line-Copy-2" stroke="#9B9B9B" stroke-width="4" stroke-linecap="square"></path>
        <path d="M992.5,193.998993 L992.5,321.000984" id="Line-Copy-8" stroke="#9B9B9B" stroke-width="4" stroke-linecap="square"></path>
        <path d="M928,192 L993,192" id="Line-Copy-8" stroke="#9B9B9B" stroke-width="4" stroke-linecap="square"></path>
        <path d="M344.5,202.999561 L344.5,487.455623" id="Line-Copy-5" stroke="#9B9B9B" stroke-width="4" stroke-linecap="square"></path>
        <path d="M247,580 L247,218.998205" id="Line-Copy" stroke="#9B9B9B" stroke-width="4" stroke-linecap="square"></path>
        <path id="Line-Copy-decoration-1" d="M247,218.998205 L244,229.798205 L250,229.798205 L247,218.998205 Z" stroke="#9B9B9B" stroke-width="4" stroke-linecap="square"></path>
    </g>
</svg>