<?xml version="1.0" encoding="UTF-8"?>
<svg width="1555px" height="754px" viewBox="0 0 1555 754" version="1.1" xmlns="http://www.w3.org/2000/svg" xmlns:xlink="http://www.w3.org/1999/xlink" style="background: #FFFFFF;">
    <!-- Generator: Sketch 49 (51002) - http://www.bohemiancoding.com/sketch -->
    <title>Slice</title>
    <desc>Created with Sketch.</desc>
    <defs>
        <rect id="path-1" x="128" y="101" width="326" height="101" rx="8"></rect>
        <rect id="path-2" x="129" y="580" width="326" height="101" rx="8"></rect>
        <path d="M1091,101 L1401,101 C1405.41828,101 1409,104.581722 1409,109 L1409,194 C1409,198.418278 1405.41828,202 1401,202 L1246,202 L1091,202 C1086.58172,202 1083,198.418278 1083,194 L1083,109 C1083,104.581722 1086.58172,101 1091,101 Z" id="path-3"></path>
        <rect id="path-4" x="1083" y="441" width="326" height="101" rx="8"></rect>
        <rect id="path-5" x="601" y="101" width="326" height="101" rx="8"></rect>
        <rect id="path-6" x="601" y="271" width="326" height="101" rx="8"></rect>
        <rect id="path-7" x="1084" y="269" width="326" height="101" rx="8"></rect>
        <rect id="path-8" x="601" y="439" width="326" height="101" rx="8"></rect>
    </defs>
    <g id="Page-1" stroke="none" stroke-width="1" fill="none" fill-rule="evenodd">
        <g id="Rectangle-2">
            <use fill="#9B9B9B" fill-rule="evenodd" xlink:href="#path-1"></use>
            <rect stroke="#9B9B9B" stroke-width="2" x="129" y="102" width="324" height="99" rx="8"></rect>
        </g>
        <path d="M220.104,169 L220.104,136.072 L232.248,136.072 C237,136.072 240.792,136.696 244.344,140.104 C247.8,143.368 249.384,147.88 249.384,152.584 C249.384,156.904 247.848,161.416 244.824,164.536 C241.56,167.944 237.48,169 232.92,169 L220.104,169 Z M230.232,161.416 L231.672,161.416 C233.016,161.416 233.88,161.512 235.128,160.84 C236.04,160.312 236.76,159.592 237.288,158.68 C238.44,156.76 238.824,154.552 238.824,152.344 C238.824,150.136 238.2,147.256 236.808,145.432 C235.224,143.464 233.688,143.56 231.384,143.56 L230.232,143.56 L230.232,161.416 Z M282.072,169 L270.84,169 L266.04,156.424 L262.872,156.424 L262.872,169 L252.648,169 L252.648,136.072 L269.4,136.072 C272.28,136.072 275.448,136.456 277.896,138.088 C280.632,139.816 281.928,142.744 281.928,145.96 C281.928,150.28 280.008,152.872 276.12,154.648 L282.072,169 Z M262.872,149.368 L266.568,149.368 C268.776,149.368 271.416,149.032 271.416,146.2 C271.416,145.096 270.84,144.04 269.832,143.512 C268.968,143.08 267.912,143.08 266.952,143.08 L262.872,143.08 L262.872,149.368 Z M304.152,169 L302.28,162.52 L293.496,162.52 L291.48,169 L283.272,169 L293.496,136.072 L304.152,136.072 L314.472,169 L304.152,169 Z M295.176,155.32 L300.552,155.32 L297.864,145.768 L295.176,155.32 Z M337.608,156.664 L326.904,156.664 L326.904,169 L317.064,169 L317.064,136.072 L340.872,136.072 L340.872,143.896 L326.904,143.896 L326.904,149.272 L337.608,149.272 L337.608,156.664 Z M357.24,143.992 L357.24,169 L347.64,169 L347.64,143.992 L340.728,143.992 L340.728,136.072 L364.008,136.072 L364.008,143.992 L357.24,143.992 Z" id="DRAFT" fill="#FFFFFF"></path>
        <g id="Rectangle-2">
            <use fill="#D8D8D8" fill-rule="evenodd" xlink:href="#path-2"></use>
            <rect stroke="#979797" stroke-width="2" x="130" y="581" width="324" height="99" rx="8"></rect>
        </g>
        <path d="M185.056,638.448 L194.416,636.768 C195.28,639.696 197.488,640.752 200.416,640.752 C201.712,640.752 204.304,640.56 204.304,638.736 C204.304,636.72 201.76,636.336 200.272,636.048 C194.08,634.848 186.736,633.168 186.736,625.344 C186.736,622.128 188.32,618.96 190.96,617.088 C193.648,615.216 197.152,614.592 200.416,614.592 C206.128,614.592 211.648,616.944 213.664,622.656 L205.312,625.2 C204.352,622.752 202.528,621.888 199.984,621.888 C198.64,621.888 196.72,622.272 196.72,624 C196.72,625.728 199.12,626.064 200.368,626.352 C203.488,626.976 206.8,627.504 209.68,628.992 C212.896,630.72 214.576,633.792 214.576,637.392 C214.576,645.312 206.704,648.48 199.888,648.48 C192.976,648.48 186.832,645.6 185.056,638.448 Z M232.96,622.992 L232.96,648 L223.36,648 L223.36,622.992 L216.448,622.992 L216.448,615.072 L239.728,615.072 L239.728,622.992 L232.96,622.992 Z M257.104,614.592 C267.136,614.592 272.848,621.792 272.848,631.632 C272.848,640.992 267.088,648.48 257.104,648.48 C247.12,648.48 241.36,640.992 241.36,631.632 C241.36,621.792 247.072,614.592 257.104,614.592 Z M257.104,622.032 C252.64,622.032 252.16,628.464 252.16,631.68 C252.16,634.848 252.496,640.944 257.104,640.944 C261.712,640.944 262.048,634.848 262.048,631.68 C262.048,628.464 261.568,622.032 257.104,622.032 Z M305.632,648 L294.4,648 L289.6,635.424 L286.432,635.424 L286.432,648 L276.208,648 L276.208,615.072 L292.96,615.072 C295.84,615.072 299.008,615.456 301.456,617.088 C304.192,618.816 305.488,621.744 305.488,624.96 C305.488,629.28 303.568,631.872 299.68,633.648 L305.632,648 Z M286.432,628.368 L290.128,628.368 C292.336,628.368 294.976,628.032 294.976,625.2 C294.976,624.096 294.4,623.04 293.392,622.512 C292.528,622.08 291.472,622.08 290.512,622.08 L286.432,622.08 L286.432,628.368 Z M327.712,648 L325.84,641.52 L317.056,641.52 L315.04,648 L306.832,648 L317.056,615.072 L327.712,615.072 L338.032,648 L327.712,648 Z M318.736,634.32 L324.112,634.32 L321.424,624.768 L318.736,634.32 Z M369.136,629.568 L369.136,648 L364.192,648 L362.848,644.544 C360.784,647.328 357.328,648.48 353.92,648.48 C344.32,648.48 339.184,641.088 339.184,632.064 C339.184,627.744 340.288,623.232 343.024,619.824 C346.144,615.888 350.128,614.592 354.976,614.592 C362.608,614.592 367.696,618.48 369.136,626.016 L359.344,627.024 C358.96,624.384 357.856,621.888 354.784,621.888 C350.128,621.888 349.84,628.128 349.84,631.488 C349.84,633.408 349.936,635.808 350.704,637.536 C351.52,639.456 353.104,640.704 355.216,640.704 C357.808,640.704 359.728,639.12 359.728,636.528 L354.304,636.528 L354.304,629.568 L369.136,629.568 Z M397.936,640.128 L397.936,648 L373.216,648 L373.216,615.072 L397.936,615.072 L397.936,622.656 L383.104,622.656 L383.104,627.456 L395.104,627.456 L395.104,634.8 L383.104,634.8 L383.104,640.128 L397.936,640.128 Z" id="STORAGE" fill="#FFFFFF"></path>
        <g id="Rectangle-2">
            <use fill="#4A90E2" fill-rule="evenodd" xlink:href="#path-3"></use>
            <path stroke="#979797" stroke-width="2" d="M1091,102 C1087.13401,102 1084,105.134007 1084,109 L1084,194 C1084,197.865993 1087.13401,201 1091,201 L1401,201 C1404.86599,201 1408,197.865993 1408,194 L1408,109 C1408,105.134007 1404.86599,102 1401,102 L1091,102 Z"></path>
        </g>
        <path d="M1202.848,156.664 L1192.144,156.664 L1192.144,169 L1182.304,169 L1182.304,136.072 L1206.112,136.072 L1206.112,143.896 L1192.144,143.896 L1192.144,149.272 L1202.848,149.272 L1202.848,156.664 Z M1218.592,136.072 L1218.592,169 L1208.416,169 L1208.416,136.072 L1218.592,136.072 Z M1252,169 L1243.744,169 L1234.288,153.592 L1231.36,147.64 L1231.264,147.736 L1231.36,148.12 C1231.84,150.232 1232.032,151.384 1232.032,153.64 L1232.032,169 L1223.824,169 L1223.824,136.072 L1233.376,136.072 L1244.416,154.456 L1244.512,154.36 L1243.792,145.24 L1243.792,136.072 L1252,136.072 L1252,169 Z M1275.952,169 L1274.08,162.52 L1265.296,162.52 L1263.28,169 L1255.072,169 L1265.296,136.072 L1275.952,136.072 L1286.272,169 L1275.952,169 Z M1266.976,155.32 L1272.352,155.32 L1269.664,145.768 L1266.976,155.32 Z M1312.24,160.936 L1312.24,169 L1289.152,169 L1289.152,136.072 L1299.328,136.072 L1299.328,160.936 L1312.24,160.936 Z" id="FINAL" fill="#FFFFFF"></path>
        <g id="Rectangle-2">
            <use fill="#7ED321" fill-rule="evenodd" xlink:href="#path-4"></use>
            <rect stroke="#417505" stroke-width="2" x="1084" y="442" width="324" height="99" rx="8"></rect>
        </g>
        <path d="M1244.512,476.072 L1235.776,509 L1227.28,509 L1222.72,490.856 L1222.624,490.856 L1218.352,509 L1209.52,509 L1200.736,476.072 L1210.24,476.072 L1214.8,495.08 L1214.896,495.08 L1219.36,476.072 L1227.28,476.072 L1232.128,495.08 L1232.224,495.08 L1236.784,476.072 L1244.512,476.072 Z M1257.472,476.072 L1257.472,509 L1247.296,509 L1247.296,476.072 L1257.472,476.072 Z M1272.64,497.048 L1272.64,509 L1262.416,509 L1262.416,476.072 L1275.856,476.072 C1279.072,476.072 1282.672,476.168 1285.504,477.8 C1288.576,479.624 1290.4,482.888 1290.4,486.44 C1290.4,489.56 1289.2,492.536 1286.752,494.504 C1284.208,496.568 1280.944,497.048 1277.776,497.048 L1272.64,497.048 Z M1272.64,489.992 L1275.28,489.992 C1277.584,489.992 1280.368,489.848 1280.368,486.776 C1280.368,483.848 1277.872,483.608 1275.568,483.608 L1272.64,483.608 L1272.64,489.992 Z" id="WIP" fill="#FFFFFF"></path>
        <g id="Rectangle-2">
            <use fill="#B8E986" fill-rule="evenodd" xlink:href="#path-5"></use>
            <rect stroke="#979797" stroke-width="2" x="602" y="102" width="324" height="99" rx="8"></rect>
        </g>
        <path d="M664.832,169 L662.96,162.52 L654.176,162.52 L652.16,169 L643.952,169 L654.176,136.072 L664.832,136.072 L675.152,169 L664.832,169 Z M655.856,155.32 L661.232,155.32 L658.544,145.768 L655.856,155.32 Z M695.888,156.424 L705.104,157 C704.48,164.584 698.96,169.48 691.376,169.48 C681.488,169.48 676.304,162.328 676.304,152.968 C676.304,143.464 680.864,135.592 691.232,135.592 C699.632,135.592 704.432,140.584 705.104,148.792 L695.696,149.272 C695.792,146.488 694.736,142.984 691.328,142.984 C686.864,142.984 686.672,149.848 686.672,152.968 C686.672,156.28 686.864,161.896 691.424,161.896 C694.544,161.896 695.744,159.16 695.888,156.424 Z M727.568,156.424 L736.784,157 C736.16,164.584 730.64,169.48 723.056,169.48 C713.168,169.48 707.984,162.328 707.984,152.968 C707.984,143.464 712.544,135.592 722.912,135.592 C731.312,135.592 736.112,140.584 736.784,148.792 L727.376,149.272 C727.472,146.488 726.416,142.984 723.008,142.984 C718.544,142.984 718.352,149.848 718.352,152.968 C718.352,156.28 718.544,161.896 723.104,161.896 C726.224,161.896 727.424,159.16 727.568,156.424 Z M765.776,161.128 L765.776,169 L741.056,169 L741.056,136.072 L765.776,136.072 L765.776,143.656 L750.944,143.656 L750.944,148.456 L762.944,148.456 L762.944,155.8 L750.944,155.8 L750.944,161.128 L765.776,161.128 Z M780.08,157.048 L780.08,169 L769.856,169 L769.856,136.072 L783.296,136.072 C786.512,136.072 790.112,136.168 792.944,137.8 C796.016,139.624 797.84,142.888 797.84,146.44 C797.84,149.56 796.64,152.536 794.192,154.504 C791.648,156.568 788.384,157.048 785.216,157.048 L780.08,157.048 Z M780.08,149.992 L782.72,149.992 C785.024,149.992 787.808,149.848 787.808,146.776 C787.808,143.848 785.312,143.608 783.008,143.608 L780.08,143.608 L780.08,149.992 Z M815.84,143.992 L815.84,169 L806.24,169 L806.24,143.992 L799.328,143.992 L799.328,136.072 L822.608,136.072 L822.608,143.992 L815.84,143.992 Z M850.256,161.128 L850.256,169 L825.536,169 L825.536,136.072 L850.256,136.072 L850.256,143.656 L835.424,143.656 L835.424,148.456 L847.424,148.456 L847.424,155.8 L835.424,155.8 L835.424,161.128 L850.256,161.128 Z M854.384,169 L854.384,136.072 L866.528,136.072 C871.28,136.072 875.072,136.696 878.624,140.104 C882.08,143.368 883.664,147.88 883.664,152.584 C883.664,156.904 882.128,161.416 879.104,164.536 C875.84,167.944 871.76,169 867.2,169 L854.384,169 Z M864.512,161.416 L865.952,161.416 C867.296,161.416 868.16,161.512 869.408,160.84 C870.32,160.312 871.04,159.592 871.568,158.68 C872.72,156.76 873.104,154.552 873.104,152.344 C873.104,150.136 872.48,147.256 871.088,145.432 C869.504,143.464 867.968,143.56 865.664,143.56 L864.512,143.56 L864.512,161.416 Z" id="ACCEPTED" fill="#FFFFFF"></path>
        <g id="Rectangle-2">
            <use fill-opacity="0.720703125" fill="#D0021B" fill-rule="evenodd" xlink:href="#path-6"></use>
            <rect stroke="#979797" stroke-width="2" x="602" y="272" width="324" height="99" rx="8"></rect>
        </g>
        <path d="M681.632,339 L670.4,339 L665.6,326.424 L662.432,326.424 L662.432,339 L652.208,339 L652.208,306.072 L668.96,306.072 C671.84,306.072 675.008,306.456 677.456,308.088 C680.192,309.816 681.488,312.744 681.488,315.96 C681.488,320.28 679.568,322.872 675.68,324.648 L681.632,339 Z M662.432,319.368 L666.128,319.368 C668.336,319.368 670.976,319.032 670.976,316.2 C670.976,315.096 670.4,314.04 669.392,313.512 C668.528,313.08 667.472,313.08 666.512,313.08 L662.432,313.08 L662.432,319.368 Z M709.616,331.128 L709.616,339 L684.896,339 L684.896,306.072 L709.616,306.072 L709.616,313.656 L694.784,313.656 L694.784,318.456 L706.784,318.456 L706.784,325.8 L694.784,325.8 L694.784,331.128 L709.616,331.128 Z M720.224,326.232 L720.224,306.072 L729.92,306.072 L729.92,326.232 C729.92,329.448 730.016,333.336 728,336.024 C725.84,338.904 722.384,339.48 718.976,339.48 C716.72,339.48 714.464,339.288 712.256,338.712 L712.256,330.84 C713.504,331.224 714.848,331.464 716.192,331.464 C717.296,331.464 718.688,331.176 719.408,330.264 C720.224,329.208 720.224,327.528 720.224,326.232 Z M759.536,331.128 L759.536,339 L734.816,339 L734.816,306.072 L759.536,306.072 L759.536,313.656 L744.704,313.656 L744.704,318.456 L756.704,318.456 L756.704,325.8 L744.704,325.8 L744.704,331.128 L759.536,331.128 Z M781.808,326.424 L791.024,327 C790.4,334.584 784.88,339.48 777.296,339.48 C767.408,339.48 762.224,332.328 762.224,322.968 C762.224,313.464 766.784,305.592 777.152,305.592 C785.552,305.592 790.352,310.584 791.024,318.792 L781.616,319.272 C781.712,316.488 780.656,312.984 777.248,312.984 C772.784,312.984 772.592,319.848 772.592,322.968 C772.592,326.28 772.784,331.896 777.344,331.896 C780.464,331.896 781.664,329.16 781.808,326.424 Z M809.6,313.992 L809.6,339 L800,339 L800,313.992 L793.088,313.992 L793.088,306.072 L816.368,306.072 L816.368,313.992 L809.6,313.992 Z M844.016,331.128 L844.016,339 L819.296,339 L819.296,306.072 L844.016,306.072 L844.016,313.656 L829.184,313.656 L829.184,318.456 L841.184,318.456 L841.184,325.8 L829.184,325.8 L829.184,331.128 L844.016,331.128 Z M848.144,339 L848.144,306.072 L860.288,306.072 C865.04,306.072 868.832,306.696 872.384,310.104 C875.84,313.368 877.424,317.88 877.424,322.584 C877.424,326.904 875.888,331.416 872.864,334.536 C869.6,337.944 865.52,339 860.96,339 L848.144,339 Z M858.272,331.416 L859.712,331.416 C861.056,331.416 861.92,331.512 863.168,330.84 C864.08,330.312 864.8,329.592 865.328,328.68 C866.48,326.76 866.864,324.552 866.864,322.344 C866.864,320.136 866.24,317.256 864.848,315.432 C863.264,313.464 861.728,313.56 859.424,313.56 L858.272,313.56 L858.272,331.416 Z" id="REJECTED" fill="#FFFFFF"></path>
        <g id="Rectangle-2">
            <use fill="#F8E71C" fill-rule="evenodd" xlink:href="#path-7"></use>
            <rect stroke="#979797" stroke-width="2" x="1085" y="270" width="324" height="99" rx="8"></rect>
        </g>
        <path d="M1217.864,303.592 C1227.896,303.592 1233.608,310.792 1233.608,320.632 C1233.608,329.992 1227.848,337.48 1217.864,337.48 C1207.88,337.48 1202.12,329.992 1202.12,320.632 C1202.12,310.792 1207.832,303.592 1217.864,303.592 Z M1217.864,311.032 C1213.4,311.032 1212.92,317.464 1212.92,320.68 C1212.92,323.848 1213.256,329.944 1217.864,329.944 C1222.472,329.944 1222.808,323.848 1222.808,320.68 C1222.808,317.464 1222.328,311.032 1217.864,311.032 Z M1260.44,328.936 L1260.44,337 L1237.352,337 L1237.352,304.072 L1247.528,304.072 L1247.528,328.936 L1260.44,328.936 Z M1262.984,337 L1262.984,304.072 L1275.128,304.072 C1279.88,304.072 1283.672,304.696 1287.224,308.104 C1290.68,311.368 1292.264,315.88 1292.264,320.584 C1292.264,324.904 1290.728,329.416 1287.704,332.536 C1284.44,335.944 1280.36,337 1275.8,337 L1262.984,337 Z M1273.112,329.416 L1274.552,329.416 C1275.896,329.416 1276.76,329.512 1278.008,328.84 C1278.92,328.312 1279.64,327.592 1280.168,326.68 C1281.32,324.76 1281.704,322.552 1281.704,320.344 C1281.704,318.136 1281.08,315.256 1279.688,313.432 C1278.104,311.464 1276.568,311.56 1274.264,311.56 L1273.112,311.56 L1273.112,329.416 Z" id="OLD" fill="#FFFFFF"></path>
        <g id="Rectangle-2">
            <use fill="#D8D8D8" fill-rule="evenodd" xlink:href="#path-8"></use>
            <rect stroke="#979797" stroke-width="2" x="602" y="440" width="324" height="99" rx="8"></rect>
        </g>
        <path d="M692.528,494.424 L701.744,495 C701.12,502.584 695.6,507.48 688.016,507.48 C678.128,507.48 672.944,500.328 672.944,490.968 C672.944,481.464 677.504,473.592 687.872,473.592 C696.272,473.592 701.072,478.584 701.744,486.792 L692.336,487.272 C692.432,484.488 691.376,480.984 687.968,480.984 C683.504,480.984 683.312,487.848 683.312,490.968 C683.312,494.28 683.504,499.896 688.064,499.896 C691.184,499.896 692.384,497.16 692.528,494.424 Z M729.44,498.936 L729.44,507 L706.352,507 L706.352,474.072 L716.528,474.072 L716.528,498.936 L729.44,498.936 Z M746.384,473.592 C756.416,473.592 762.128,480.792 762.128,490.632 C762.128,499.992 756.368,507.48 746.384,507.48 C736.4,507.48 730.64,499.992 730.64,490.632 C730.64,480.792 736.352,473.592 746.384,473.592 Z M746.384,481.032 C741.92,481.032 741.44,487.464 741.44,490.68 C741.44,493.848 741.776,499.944 746.384,499.944 C750.992,499.944 751.328,493.848 751.328,490.68 C751.328,487.464 750.848,481.032 746.384,481.032 Z M763.616,497.448 L772.976,495.768 C773.84,498.696 776.048,499.752 778.976,499.752 C780.272,499.752 782.864,499.56 782.864,497.736 C782.864,495.72 780.32,495.336 778.832,495.048 C772.64,493.848 765.296,492.168 765.296,484.344 C765.296,481.128 766.88,477.96 769.52,476.088 C772.208,474.216 775.712,473.592 778.976,473.592 C784.688,473.592 790.208,475.944 792.224,481.656 L783.872,484.2 C782.912,481.752 781.088,480.888 778.544,480.888 C777.2,480.888 775.28,481.272 775.28,483 C775.28,484.728 777.68,485.064 778.928,485.352 C782.048,485.976 785.36,486.504 788.24,487.992 C791.456,489.72 793.136,492.792 793.136,496.392 C793.136,504.312 785.264,507.48 778.448,507.48 C771.536,507.48 765.392,504.6 763.616,497.448 Z M821.936,499.128 L821.936,507 L797.216,507 L797.216,474.072 L821.936,474.072 L821.936,481.656 L807.104,481.656 L807.104,486.456 L819.104,486.456 L819.104,493.8 L807.104,493.8 L807.104,499.128 L821.936,499.128 Z M826.064,507 L826.064,474.072 L838.208,474.072 C842.96,474.072 846.752,474.696 850.304,478.104 C853.76,481.368 855.344,485.88 855.344,490.584 C855.344,494.904 853.808,499.416 850.784,502.536 C847.52,505.944 843.44,507 838.88,507 L826.064,507 Z M836.192,499.416 L837.632,499.416 C838.976,499.416 839.84,499.512 841.088,498.84 C842,498.312 842.72,497.592 843.248,496.68 C844.4,494.76 844.784,492.552 844.784,490.344 C844.784,488.136 844.16,485.256 842.768,483.432 C841.184,481.464 839.648,481.56 837.344,481.56 L836.192,481.56 L836.192,499.416 Z" id="CLOSED" fill="#FFFFFF"></path>
        <path d="M1244.5,209.5 L1244.5,256.131534" id="Line" stroke="#9B9B9B" stroke-width="4" stroke-linecap="square"></path>
        <path id="Line-decoration-1" d="M1244.5,256.131534 L1247.5,245.331534 L1241.5,245.331534 L1244.5,256.131534 Z" stroke="#9B9B9B" stroke-width="4" stroke-linecap="square"></path>
        <path d="M993,323 L942,323" id="Line-Copy-7" stroke="#9B9B9B" stroke-width="4" stroke-linecap="square"></path>
        <path id="Line-Copy-7-decoration-1" d="M942,323 L952.8,326 L952.8,320 L942,323 Z" stroke="#9B9B9B" stroke-width="4" stroke-linecap="square"></path>
        <path d="M151.5,203.5 L151.5,555.028804" id="Line" stroke="#9B9B9B" stroke-width="4" stroke-linecap="square"></path>
        <path id="Line-decoration-1" d="M151.5,555.028804 L154.5,544.228804 L148.5,544.228804 L151.5,555.028804 Z" stroke="#9B9B9B" stroke-width="4" stroke-linecap="square"></path>
        <path d="M442,323.333333 L579.420352,323.333333" id="Line-Copy-2" stroke="#9B9B9B" stroke-width="4" stroke-linecap="square"></path>
        <path id="Line-Copy-2-decoration-1" d="M579.420352,323.333333 L568.620352,320.333333 L568.620352,326.333333 L579.420352,323.333333 Z" stroke="#9B9B9B" stroke-width="4" stroke-linecap="square"></path>
        <path d="M454.971426,151.666667 L579.417167,151.666667" id="Line-Copy-4" stroke="#9B9B9B" stroke-width="4" stroke-linecap="square"></path>
        <path id="Line-Copy-4-decoration-1" d="M579.417167,151.666667 L568.617167,148.666667 L568.617167,154.666667 L579.417167,151.666667 Z" stroke="#9B9B9B" stroke-width="4" stroke-linecap="square"></path>
        <path d="M928.971426,151.666667 L1053.41717,151.666667" id="Line-Copy-6" stroke="#9B9B9B" stroke-width="4" stroke-linecap="square"></path>
        <path id="Line-Copy-6-decoration-1" d="M1053.41717,151.666667 L1042.61717,148.666667 L1042.61717,154.666667 L1053.41717,151.666667 Z" stroke="#9B9B9B" stroke-width="4" stroke-linecap="square"></path>
        <path d="M345.488902,488.333333 L579.419626,488.333333" id="Line-Copy-3" stroke="#9B9B9B" stroke-width="4" stroke-linecap="square"></path>
        <path id="Line-Copy-3-decoration-1" d="M579.419626,488.333333 L568.619626,485.333333 L568.619626,491.333333 L579.419626,488.333333 Z" stroke="#9B9B9B" stroke-width="4" stroke-linecap="square"></path>
        <path d="M441.5,202.998959 L441.5,323.105962" id="Line-Copy-2" stroke="#9B9B9B" stroke-width="4" stroke-linecap="square"></path>
        <path d="M992.5,193.998993 L992.5,321.000984" id="Line-Copy-8" stroke="#9B9B9B" stroke-width="4" stroke-linecap="square"></path>
        <path d="M928,192 L993,192" id="Line-Copy-8" stroke="#9B9B9B" stroke-width="4" stroke-linecap="square"></path>
        <path d="M344.5,202.999561 L344.5,487.455623" id="Line-Copy-5" stroke="#9B9B9B" stroke-width="4" stroke-linecap="square"></path>
        <path d="M247,580 L247,218.998205" id="Line-Copy" stroke="#9B9B9B" stroke-width="4" stroke-linecap="square"></path>
        <path id="Line-Copy-decoration-1" d="M247,218.998205 L244,229.798205 L250,229.798205 L247,218.998205 Z" stroke="#9B9B9B" stroke-width="4" stroke-linecap="square"></path>
    </g>
</svg>